<svg xmlns="http://www.w3.org/2000/svg" width="900" height="1440" viewBox="0 0 900 1440" role="img" aria-labelledby="title"><title id="title">Agent Workspace / BUSINESS WORKSPACE — vector concept artwork</title><defs><filter id="shadow" x="-35%" y="-35%" width="180%" height="190%"><feDropShadow dx="0" dy="18" stdDeviation="13" flood-color="#30203d" flood-opacity=".16"/></filter></defs><rect x="0" y="0" width="900" height="1440" rx="0" fill="#2b1630" stroke="none" stroke-width="1"/><g transform="translate(450 753) rotate(0) translate(-450.0 -535.0)"><svg width="900" height="1070" viewBox="0 0 900 1070" overflow="hidden"><ellipse cx="704.0" cy="409.0" rx="305.0" ry="305.0" fill="none" stroke="#604b6b" stroke-width="2"/><ellipse cx="152.0" cy="919.0" rx="394.0" ry="394.0" fill="none" stroke="#4c3658" stroke-width="2"/><polyline points="695,302 695,510 535,510" fill="none" stroke="#957eab" stroke-width="3" stroke-linecap="round" stroke-linejoin="round"/><g transform="translate(433 573) rotate(4) translate(-360.0 -233.0)"><g filter="url(#shadow)"><rect x="0" y="0" width="720" height="466" rx="30" fill="#faf6ec" stroke="none" stroke-width="1"/></g><svg width="720" height="466" viewBox="0 0 720 466" overflow="hidden"><defs><clipPath id="layer-2-clip"><rect width="720" height="466" rx="30"/></clipPath></defs><g clip-path="url(#layer-2-clip)"><rect x="0" y="0" width="720" height="466" rx="30" fill="#faf6ec" stroke="none" stroke-width="1"/><rect x="27" y="26" width="34" height="34" rx="10" fill="#2b1630" stroke="none" stroke-width="1"/><ellipse cx="44.0" cy="43.0" rx="7.0" ry="7.0" fill="#c5b8e9" stroke="none" stroke-width="1"/><polyline points="79,44 224,44" fill="none" stroke="#2b1630" stroke-width="7" stroke-linecap="round" stroke-linejoin="round"/><ellipse cx="664.0" cy="43.0" rx="14.0" ry="14.0" fill="#d9e5b5" stroke="none" stroke-width="1"/><polyline points="27,83 693,83" fill="none" stroke="#ddd5df" stroke-width="2" stroke-linecap="round" stroke-linejoin="round"/><rect x="27" y="106" width="85" height="333" rx="16" fill="#2b1630" stroke="none" stroke-width="1"/><rect x="49" y="127" width="41" height="41" rx="11" fill="#c5b8e9" stroke="none" stroke-width="1"/><rect x="49" y="198" width="41" height="41" rx="11" fill="#745c80" stroke="none" stroke-width="1"/><rect x="49" y="269" width="41" height="41" rx="11" fill="#745c80" stroke="none" stroke-width="1"/><rect x="136" y="109" width="555" height="91" rx="14" fill="#eee8e4" stroke="none" stroke-width="1"/><rect x="155" y="129" width="49" height="50" rx="13" fill="#c5b8e9" stroke="none" stroke-width="1"/><polyline points="225,141 440,141" fill="none" stroke="#2b1630" stroke-width="7" stroke-linecap="round" stroke-linejoin="round"/><polyline points="225,167 387,167" fill="none" stroke="#b9adbd" stroke-width="5" stroke-linecap="round" stroke-linejoin="round"/><ellipse cx="618.0" cy="154.0" rx="18.0" ry="18.0" fill="#d9cfde" stroke="none" stroke-width="1"/><rect x="136" y="219" width="555" height="91" rx="14" fill="#eee8e4" stroke="none" stroke-width="1"/><rect x="155" y="239" width="49" height="50" rx="13" fill="#f47a50" stroke="none" stroke-width="1"/><polyline points="225,251 408,251" fill="none" stroke="#2b1630" stroke-width="7" stroke-linecap="round" stroke-linejoin="round"/><polyline points="225,277 361,277" fill="none" stroke="#b9adbd" stroke-width="5" stroke-linecap="round" stroke-linejoin="round"/><ellipse cx="618.0" cy="264.0" rx="18.0" ry="18.0" fill="#d9cfde" stroke="none" stroke-width="1"/><rect x="136" y="329" width="555" height="91" rx="14" fill="#eee8e4" stroke="none" stroke-width="1"/><rect x="155" y="349" width="49" height="50" rx="13" fill="#d9e5b5" stroke="none" stroke-width="1"/><polyline points="225,361 376,361" fill="none" stroke="#2b1630" stroke-width="7" stroke-linecap="round" stroke-linejoin="round"/><polyline points="225,387 335,387" fill="none" stroke="#b9adbd" stroke-width="5" stroke-linecap="round" stroke-linejoin="round"/><ellipse cx="618.0" cy="374.0" rx="18.0" ry="18.0" fill="#2b1630" stroke="none" stroke-width="1"/><polyline points="609,374.35 614.95,382 626,365" fill="none" stroke="#d9e5b5" stroke-width="3" stroke-linecap="round" stroke-linejoin="round"/></g></svg></g><g transform="translate(693 290) rotate(-8) translate(-71.0 -71.0)"><g filter="url(#shadow)"><rect x="0" y="0" width="142" height="142" rx="40" fill="#f47a50" stroke="none" stroke-width="1"/></g><svg width="142" height="142" viewBox="0 0 142 142" overflow="hidden"><defs><clipPath id="layer-3-clip"><rect width="142" height="142" rx="40"/></clipPath></defs><g clip-path="url(#layer-3-clip)"><rect x="0" y="0" width="142" height="142" rx="40" fill="#f47a50" stroke="none" stroke-width="1"/><rect x="32" y="44" width="78" height="61" rx="20" fill="#2b1630" stroke="none" stroke-width="1"/><ellipse cx="56.0" cy="70.0" rx="6.0" ry="6.0" fill="#faf6ec" stroke="none" stroke-width="1"/><ellipse cx="86.0" cy="70.0" rx="6.0" ry="6.0" fill="#faf6ec" stroke="none" stroke-width="1"/><polyline points="71,23 71,44" fill="none" stroke="#2b1630" stroke-width="5" stroke-linecap="round" stroke-linejoin="round"/><ellipse cx="71.0" cy="20.0" rx="6.0" ry="6.0" fill="#2b1630" stroke="none" stroke-width="1"/></g></svg></g><g transform="translate(523 879) rotate(-6) translate(-197.0 -77.0)"><g filter="url(#shadow)"><rect x="0" y="0" width="394" height="154" rx="27" fill="#c5b8e9" stroke="none" stroke-width="1"/></g><svg width="394" height="154" viewBox="0 0 394 154" overflow="hidden"><defs><clipPath id="layer-4-clip"><rect width="394" height="154" rx="27"/></clipPath></defs><g clip-path="url(#layer-4-clip)"><rect x="0" y="0" width="394" height="154" rx="27" fill="#c5b8e9" stroke="none" stroke-width="1"/><ellipse cx="76.0" cy="77.0" rx="51.0" ry="51.0" fill="#2b1630" stroke="none" stroke-width="1"/><polyline points="54,84.1 68.7,103 96,61" fill="none" stroke="#d9e5b5" stroke-width="6" stroke-linecap="round" stroke-linejoin="round"/><polyline points="160,59 340,59" fill="none" stroke="#2b1630" stroke-width="8" stroke-linecap="round" stroke-linejoin="round"/><polyline points="160,93 285,93" fill="none" stroke="#887397" stroke-width="6" stroke-linecap="round" stroke-linejoin="round"/></g></svg></g><path d="M143.00 287.00 L117.48 292.48 L112.00 318.00 L106.52 292.48 L81.00 287.00 L106.52 281.52 L112.00 256.00 L117.48 281.52 Z" fill="#c5b8e9" stroke="none" stroke-width="1" stroke-linecap="round" stroke-linejoin="round"/></svg></g></svg>