<svg xmlns="http://www.w3.org/2000/svg" width="900" height="1440" viewBox="0 0 900 1440" role="img" aria-labelledby="title"><title id="title">Bit2Go / PAYMENTS — vector concept artwork</title><defs><filter id="shadow" x="-35%" y="-35%" width="180%" height="190%"><feDropShadow dx="0" dy="18" stdDeviation="13" flood-color="#30203d" flood-opacity=".16"/></filter><path id="g-600-13" d="M171.5 0V111H355Q404.25 111 431.75 140.88Q459.25 170.75 459.25 212Q459.25 239.75 446.88 262.88Q434.5 286 411.12 299.5Q387.75 313 355 313H171.5V422.5H340Q381.75 422.5 407.25 443.75Q432.75 465 432.75 507.25Q432.75 549.5 407.25 570.75Q381.75 592 340 592H171.5V703H356.25Q425.75 703 473.12 677.38Q520.5 651.75 544.5 610.38Q568.5 569 568.5 520Q568.5 459.75 532.12 416.25Q495.75 372.75 425.5 351.5L431.75 395.75Q509.5 373.75 552.25 323.25Q595 272.75 595 201.75Q595 145.75 567.38 100.12Q539.75 54.5 487.25 27.25Q434.75 0 360 0ZM71.75 0V703H207V0Z"/><path id="g-600-156" d="M58 0V483H189.5V0ZM123.75 560.5Q92 560.5 71 582.12Q50 603.75 50 635.5Q50 667.25 71 688.88Q92 710.5 123.75 710.5Q156.5 710.5 177 688.88Q197.5 667.25 197.5 635.5Q197.5 603.75 177 582.12Q156.5 560.5 123.75 560.5Z"/><path id="g-600-205" d="M128.5 0V683.5H260V0ZM16 368V483H372.5V368Z"/><path id="g-600-274" d="M26 77.75 290.5 354.75Q318.75 384.5 336.38 408.38Q354 432.25 361.88 453.5Q369.75 474.75 369.75 497Q369.75 541 341.25 566Q312.75 591 268 591Q222 591 186.25 567.12Q150.5 543.25 119.75 491.25L27.25 570Q69 640.75 131.38 677.12Q193.75 713.5 275.25 713.5Q344.25 713.5 395.62 686.88Q447 660.25 475.12 612.12Q503.25 564 503.25 500Q503.25 456.75 492.62 421.88Q482 387 457.25 352.5Q432.5 318 390 274.5L196.75 78.25ZM26 0V77.75L141.75 118.25H517.5V0Z"/><path id="g-600-33" d="M396.5 -10.5Q321.75 -10.5 256.12 17.38Q190.5 45.25 141.38 94.88Q92.25 144.5 64.38 210.38Q36.5 276.25 36.5 352.25Q36.5 428.5 64.75 494Q93 559.5 143 609Q193 658.5 260.12 686Q327.25 713.5 404.75 713.5Q491.75 713.5 564.62 681Q637.5 648.5 685.75 589.75L593.5 497.5Q561 541.25 512 564.12Q463 587 404 587Q336.75 587 285.12 557.5Q233.5 528 204.62 475.25Q175.75 422.5 175.75 352.5Q175.75 282.5 204.5 229.25Q233.25 176 282.75 146Q332.25 116 395.75 116Q461.75 116 508.88 140.38Q556 164.75 581.12 212.38Q606.25 260 606.25 328.75L694.5 268L387.5 270.5V389.25H745.75V369.75Q745.75 244 700.75 159.25Q655.75 74.5 577.12 32Q498.5 -10.5 396.5 -10.5Z"/><path id="g-600-182" d="M284.5 -10.5Q211.75 -10.5 153.12 23Q94.5 56.5 60.25 114Q26 171.5 26 242.5Q26 313.5 60.12 370Q94.25 426.5 152.88 460Q211.5 493.5 284.25 493.5Q357.75 493.5 416.25 460.38Q474.75 427.25 509 370.38Q543.25 313.5 543.25 242.5Q543.25 171.5 509.12 114Q475 56.5 416.5 23Q358 -10.5 284.5 -10.5ZM284.25 112Q321.25 112 349.5 128.5Q377.75 145 393.38 174.62Q409 204.25 409 242.25Q409 280.25 392.88 309.12Q376.75 338 349 354.5Q321.25 371 284.25 371Q248.25 371 220 354.38Q191.75 337.75 176 308.88Q160.25 280 160.25 242Q160.25 204.25 176 174.62Q191.75 145 220 128.5Q248.25 112 284.25 112Z"/><path id="g-500-272" d="M329.08 -10Q250 -10 184.48 34.48Q118.97 78.96 79.98 160.16Q41 241.36 41 351Q41 461 79.44 541.41Q117.88 621.81 182.85 665.91Q247.82 710 326.87 710Q407 710 472.03 666Q537.05 622 575.53 541.26Q614 460.51 614 349.74Q614 240 575.54 158.9Q537.08 77.81 472.62 33.9Q408.17 -10 329.08 -10ZM327.11 98Q379 98 417 126Q455 154 476.5 210Q498 266 498 350.93Q498 435 476.5 491Q455 547 416.5 574.5Q378 602 326.61 602Q276 602 237.5 574.5Q199 547 178 491.5Q157 436 157 351.43Q157 266 178 210Q199 154 237.5 126Q276 98 327.11 98Z"/><path id="g-500-277" d="M247 -10Q174 -10 117 15.5Q60 41 21 90L99 168Q120 136 158.5 117Q197 98 245 98Q289 98 322 114Q355 130 374 160Q393 190 393 231Q393 274 374.5 302.5Q356 331 325.5 345.5Q295 360 260 360Q220 360 188.5 351Q157 342 127 319L130 391Q146 412 167 425.5Q188 439 216 446Q244 453 282 453Q356 453 406.5 422Q457 391 483 339.5Q509 288 509 225Q509 157 475.5 104Q442 51 383 20.5Q324 -10 247 -10ZM127 319 64 382 95 700H200L164 369ZM115 597 95 700H470V597Z"/><path id="g-500-318" d="M9 -40 289 740H392L112 -40Z"/><path id="g-500-280" d="M274 -10Q202 -10 149 16Q96 42 66.5 88.5Q37 135 37 194Q37 241 55.5 280.5Q74 320 109.5 348Q145 376 194 388L191 356Q151 367 123.5 392Q96 417 82 451Q68 485 68 522Q68 578 94.5 620.5Q121 663 168 687Q215 711 274 711Q334 711 380.5 687Q427 663 453.5 620.5Q480 578 480 522Q480 485 466 451Q452 417 425 392Q398 367 357 356L354 388Q404 376 439 348Q474 320 492.5 280.5Q511 241 511 194Q511 135 482 88.5Q453 42 399.5 16Q346 -10 274 -10ZM274 94Q311 94 339.5 109Q368 124 384.5 150Q401 176 401 209Q401 243 384.5 268.5Q368 294 339.5 309Q311 324 274 324Q237 324 208.5 309Q180 294 163.5 268.5Q147 243 147 209Q147 176 163.5 150Q180 124 208.5 109Q237 94 274 94ZM274 414Q318 414 346 442Q374 470 374 514Q374 558 346 585.5Q318 613 274 613Q231 613 202.5 585.5Q174 558 174 514Q174 470 202.5 442Q231 414 274 414Z"/><path id="g-500-73" d="M155 264V364H330Q365.55 364 393.28 378.3Q421.01 392.61 437 419.07Q453 445.53 453 482Q453 518.47 437 544.93Q421.01 571.39 393.28 585.7Q365.55 600 330 600H155V700H336Q402 700 454.5 673Q507 646 537.5 597.2Q568 548.39 568 482.2Q568 416 537.5 367Q507 318 454.5 291Q402 264 336 264ZM76 0V700H191V0Z"/><path id="g-500-1" d="M24 0 312 700H392L678 0H554L330 567H372L146 0ZM166 135V235H537V135Z"/><path id="g-500-106" d="M295 280 22 700H155L368 365H306L519 700H650L375 280ZM279 0V352H394V0Z"/><path id="g-500-56" d="M76 0V700H156L447 221H395L686 700H766V0H651V498L677 491L461 136H381L165 491L191 498V0Z"/><path id="g-500-23" d="M76 0V700H191V0ZM155 0V105H547V0ZM155 307V408H513V307ZM155 595V700H542V595Z"/><path id="g-500-57" d="M76 0V700H156L191 568V0ZM561 0 142 547 156 700 575 153ZM561 0 526 123V700H641V0Z"/><path id="g-500-86" d="M252 0V680H367V0ZM24 595V700H595V595Z"/><path id="g-500-80" d="M271 -10Q188 -10 130 20Q72 50 26 108L104 186Q133 144 173 120.5Q213 97 275 97Q333 97 367.5 121Q402 145 402 187Q402 222 384 244Q366 266 336.5 280.5Q307 295 271.5 306.5Q236 318 200.5 332.5Q165 347 135.5 369Q106 391 88 426Q70 461 70 515Q70 577 100.5 620.5Q131 664 183 687Q235 710 299 710Q368 710 422.5 683Q477 656 511 614L433 536Q403 570 370.5 586.5Q338 603 296 603Q244 603 214.5 582Q185 561 185 523Q185 491 203 471.5Q221 452 250.5 438.5Q280 425 315.5 413Q351 401 386.5 386Q422 371 451.5 347.5Q481 324 499 287Q517 250 517 194Q517 100 450.5 45Q384 -10 271 -10Z"/><path id="g-500-89" d="M346.32 -10Q266.63 -10 203.69 25.95Q140.75 61.9 104.38 124.52Q68 187.14 68 266V700H183V267Q183 216.04 204.47 178.4Q225.94 140.77 263.02 120.38Q300.1 100 346.16 100Q393 100 428.96 120.36Q464.92 140.72 485.96 178.3Q507 215.89 507 266V700H622V265Q622 186.1 586.1 124.02Q550.21 61.94 488.1 25.97Q426 -10 346.32 -10Z"/><path id="g-500-39" d="M76 0V700H191V0Z"/><path id="g-500-14" d="M394 -10Q318 -10 253.5 17.5Q189 45 141 94.5Q93 144 67 209.5Q41 275 41 350Q41 425 67 490.5Q93 556 141 605Q189 654 253.5 682Q318 710 394 710Q479 710 541 682Q603 654 651 606L573 528Q542 562 497.5 581Q453 600 394 600Q342 600 299 582Q256 564 224.5 530.5Q193 497 176 451Q159 405 159 350Q159 295 176 249Q193 203 224.5 169.5Q256 136 299 118Q342 100 394 100Q458 100 502.5 119.5Q547 139 578 173L656 95Q608 46 543 18Q478 -10 394 -10Z"/><path id="g-500-63" d="M398 -10Q323 -10 258 18Q193 46 144 95.5Q95 145 67.5 210.5Q40 276 40 351Q40 426 67.5 491Q95 556 143.5 605.5Q192 655 256.5 682.5Q321 710 396 710Q471 710 535.5 682.5Q600 655 649 605.5Q698 556 725.5 490.5Q753 425 753 350Q753 275 725.5 209.5Q698 144 649.5 95Q601 46 536.5 18Q472 -10 398 -10ZM396 100Q467 100 520.5 132Q574 164 604.5 220.5Q635 277 635 351Q635 406 617.5 451.5Q600 497 568 530.5Q536 564 492.5 582Q449 600 396 600Q326 600 272.5 568.5Q219 537 188.5 481Q158 425 158 351Q158 296 175.5 249.5Q193 203 224.5 170Q256 137 300 118.5Q344 100 396 100Z"/></defs><rect x="0" y="0" width="900" height="1440" rx="0" fill="#2b1630" stroke="none" stroke-width="1"/><g transform="translate(450 753) rotate(0) translate(-450.0 -535.0)"><svg width="900" height="1070" viewBox="0 0 900 1070" overflow="hidden"><ellipse cx="713.0" cy="384.0" rx="310.0" ry="310.0" fill="#553b60" stroke="none" stroke-width="1"/><ellipse cx="191.0" cy="822.0" rx="405.0" ry="405.0" fill="none" stroke="#775a80" stroke-width="2"/><g transform="translate(451 502) rotate(-7) translate(-362.0 -328.5)"><g filter="url(#shadow)"><rect x="0" y="0" width="724" height="657" rx="30" fill="#faf6ec" stroke="none" stroke-width="1"/></g><svg width="724" height="657" viewBox="0 0 724 657" overflow="hidden"><defs><clipPath id="layer-2-clip"><rect width="724" height="657" rx="30"/></clipPath></defs><g clip-path="url(#layer-2-clip)"><rect x="0" y="0" width="724" height="657" rx="30" fill="#faf6ec" stroke="none" stroke-width="1"/><g fill="#2b1630" transform="translate(37.000 60.000) scale(0.030000 -0.030000)"><use href="#g-600-13" transform="translate(0 0)"/><use href="#g-600-156" transform="translate(631 0)"/><use href="#g-600-205" transform="translate(879 0)"/><use href="#g-600-274" transform="translate(1268 0)"/><use href="#g-600-33" transform="translate(1821 0)"/><use href="#g-600-182" transform="translate(2599 0)"/></g><rect x="569" y="33" width="111" height="42" rx="21" fill="#2b1630" stroke="none" stroke-width="1"/><polyline points="629,61 644,46" fill="none" stroke="#faf6ec" stroke-width="3" stroke-linecap="round" stroke-linejoin="round"/><polyline points="629,46 644,46 644,61" fill="none" stroke="#faf6ec" stroke-width="3" stroke-linecap="round" stroke-linejoin="round"/><polyline points="37,108 686,108" fill="none" stroke="#ded5d5" stroke-width="2" stroke-linecap="round" stroke-linejoin="round"/><polyline points="40,187 331,187" fill="none" stroke="#2b1630" stroke-width="22" stroke-linecap="round" stroke-linejoin="round"/><polyline points="40,239 272,239" fill="none" stroke="#b7a5c4" stroke-width="22" stroke-linecap="round" stroke-linejoin="round"/><polyline points="40,305 241,305" fill="none" stroke="#d5c7dc" stroke-width="8" stroke-linecap="round" stroke-linejoin="round"/><rect x="38" y="375" width="194" height="57" rx="28" fill="#c5b8e9" stroke="none" stroke-width="1"/><polyline points="175,414 197,392" fill="none" stroke="#2b1630" stroke-width="4" stroke-linecap="round" stroke-linejoin="round"/><polyline points="175,392 197,392 197,414" fill="none" stroke="#2b1630" stroke-width="4" stroke-linecap="round" stroke-linejoin="round"/><ellipse cx="525.5" cy="444.5" rx="163.5" ry="163.5" fill="#f47a50" stroke="none" stroke-width="1"/><polyline points="444,514 589,369" fill="none" stroke="#2b1630" stroke-width="17" stroke-linecap="round" stroke-linejoin="round"/><polyline points="444,369 589,369 589,514" fill="none" stroke="#2b1630" stroke-width="17" stroke-linecap="round" stroke-linejoin="round"/></g></svg></g><g transform="translate(181 932) rotate(8) translate(-122.0 -122.0)"><g filter="url(#shadow)"><ellipse cx="122.0" cy="122.0" rx="100.0" ry="100.0" fill="none" stroke="#c5b8e9" stroke-width="43"/></g><svg width="244" height="244" viewBox="0 0 244 244" overflow="hidden"><ellipse cx="122.0" cy="122.0" rx="100.0" ry="100.0" fill="none" stroke="#c5b8e9" stroke-width="43"/></svg></g><path d="M781.00 954.00 L739.84 962.84 L731.00 1004.00 L722.16 962.84 L681.00 954.00 L722.16 945.16 L731.00 904.00 L739.84 945.16 Z" fill="#f47a50" stroke="none" stroke-width="1" stroke-linecap="round" stroke-linejoin="round"/></svg></g><g fill="#faf6ec" transform="translate(58.000 89.000) scale(0.038000 -0.038000)"><use href="#g-600-13" transform="translate(0 0)"/><use href="#g-600-156" transform="translate(631 0)"/><use href="#g-600-205" transform="translate(879 0)"/><use href="#g-600-274" transform="translate(1268 0)"/><use href="#g-600-33" transform="translate(1821 0)"/><use href="#g-600-182" transform="translate(2599 0)"/></g><g fill="#faf6ec" transform="translate(777.920 82.000) scale(0.020000 -0.020000)"><use href="#g-500-272" transform="translate(0 0)"/><use href="#g-500-277" transform="translate(655 0)"/><use href="#g-500-318" transform="translate(1400 0)"/><use href="#g-500-272" transform="translate(2001 0)"/><use href="#g-500-280" transform="translate(2656 0)"/></g><polyline points="58,124 842,124" fill="none" stroke="#faf6ec" stroke-width="1" stroke-linecap="round" stroke-linejoin="round"/><g fill="#faf6ec" transform="translate(58.000 1354.000) scale(0.020000 -0.020000)"><use href="#g-500-73" transform="translate(0 0)"/><use href="#g-500-1" transform="translate(540 0)"/><use href="#g-500-106" transform="translate(1140 0)"/><use href="#g-500-56" transform="translate(1788 0)"/><use href="#g-500-23" transform="translate(2630 0)"/><use href="#g-500-57" transform="translate(3220 0)"/><use href="#g-500-86" transform="translate(3937 0)"/><use href="#g-500-80" transform="translate(4516 0)"/></g><g fill="#faf6ec" transform="translate(749.184 1391.000) scale(0.016000 -0.016000)"><use href="#g-500-89" transform="translate(0 0)"/><use href="#g-500-39" transform="translate(690 0)"/><use href="#g-500-14" transform="translate(1157 0)"/><use href="#g-500-63" transform="translate(1812 0)"/><use href="#g-500-57" transform="translate(2606 0)"/><use href="#g-500-14" transform="translate(3323 0)"/><use href="#g-500-23" transform="translate(4006 0)"/><use href="#g-500-73" transform="translate(4596 0)"/><use href="#g-500-86" transform="translate(5182 0)"/></g></svg>