<svg xmlns="http://www.w3.org/2000/svg" width="900" height="1440" viewBox="0 0 900 1440" role="img" aria-labelledby="title"><title id="title">Bit2Go / PAYMENT FLOWS — vector concept artwork</title><defs><filter id="shadow" x="-35%" y="-35%" width="180%" height="190%"><feDropShadow dx="0" dy="18" stdDeviation="13" flood-color="#30203d" flood-opacity=".16"/></filter><path id="g-500-80" d="M271 -10Q188 -10 130 20Q72 50 26 108L104 186Q133 144 173 120.5Q213 97 275 97Q333 97 367.5 121Q402 145 402 187Q402 222 384 244Q366 266 336.5 280.5Q307 295 271.5 306.5Q236 318 200.5 332.5Q165 347 135.5 369Q106 391 88 426Q70 461 70 515Q70 577 100.5 620.5Q131 664 183 687Q235 710 299 710Q368 710 422.5 683Q477 656 511 614L433 536Q403 570 370.5 586.5Q338 603 296 603Q244 603 214.5 582Q185 561 185 523Q185 491 203 471.5Q221 452 250.5 438.5Q280 425 315.5 413Q351 401 386.5 386Q422 371 451.5 347.5Q481 324 499 287Q517 250 517 194Q517 100 450.5 45Q384 -10 271 -10Z"/><path id="g-500-140" d="M284 -10Q212 -10 154.5 22.5Q97 55 63.5 112Q30 169 30 240Q30 311 63 367.5Q96 424 152.5 457Q209 490 278 490Q345 490 396.5 459Q448 428 477.5 374Q507 320 507 251Q507 239 505.5 226.5Q504 214 501 199H107V289H444L403 253Q401 297 386 327Q371 357 343.5 373Q316 389 276 389Q234 389 203 371Q172 353 155 320.5Q138 288 138 243Q138 198 156 164Q174 130 207 111.5Q240 93 283 93Q320 93 351.5 106Q383 119 405 144L475 73Q440 32 390 11Q340 -10 284 -10Z"/><path id="g-500-205" d="M134 0V680H244V0ZM19 380V480H359V380Z"/><path id="g-500-208" d="M258 -10Q197.4 -10 149.7 17Q102 44 75.5 91.35Q49 138.69 49 201.13V480H159V206Q159 171 170.5 146.5Q182 122 204.5 109Q227 96 258.33 96Q306 96 331.5 124.5Q357 153 357 206V480H467V201Q467 138 440.5 90.5Q414 43 366.86 16.5Q319.73 -10 258 -10Z"/><path id="g-500-192" d="M318 -10Q263 -10 220 13.5Q177 37 152.5 78Q128 119 128 171V309Q128 361 153 402Q178 443 221 466.5Q264 490 318 490Q383 490 435.5 456.5Q488 423 518.5 366.5Q549 310 549 239Q549 169 518.5 112.5Q488 56 435.5 23Q383 -10 318 -10ZM61 -200V480H171V351L152 234L171 118V-200ZM300 94Q340 94 370.5 112.5Q401 131 418.5 164Q436 197 436 240Q436 283 418.5 316Q401 349 370.5 367.5Q340 386 300 386Q260 386 229 367.5Q198 349 181 316Q164 283 164 240Q164 197 181 164Q198 131 229 112.5Q260 94 300 94Z"/><path id="g-500-76" d="M155 297V392H332Q385 392 414.5 419.5Q444 447 444 496Q444 540 415 570Q386 600 333 600H155V700H338Q404 700 454 673.5Q504 647 531.5 601.5Q559 556 559 498Q559 437 531.5 392Q504 347 454 322Q404 297 338 297ZM76 0V700H191V0ZM460 0 215 304 322 343 605 0Z"/><path id="g-500-218" d="M223 0 4 480H126L293 89H221L389 480H506L287 0Z"/><path id="g-500-156" d="M62 0V480H172V0ZM117 568Q89 568 70.5 587Q52 606 52 634Q52 662 70.5 681Q89 700 117 700Q146 700 164 681Q182 662 182 634Q182 606 164 587Q146 568 117 568Z"/><path id="g-500-219" d="M201 0 8 480H122L252 131L218 130L345 480H409L536 130L502 131L632 480H746L553 0H489L359 332H395L265 0Z"/><path id="g-500-19" d="M155 0V105H339Q411 105 465.5 136Q520 167 550.5 222.5Q581 278 581 351Q581 423 550 478Q519 533 464.5 564Q410 595 339 595H155V700H342Q418 700 483 673.5Q548 647 596.5 599.5Q645 552 672 488.5Q699 425 699 350Q699 276 672 212Q645 148 597 100.5Q549 53 484 26.5Q419 0 344 0ZM76 0V700H191V0Z"/><path id="g-500-182" d="M281 -10Q211 -10 154 23.5Q97 57 63.5 114Q30 171 30 241Q30 311 63.5 367Q97 423 154 456.5Q211 490 281 490Q352 490 409 457Q466 424 499.5 367.5Q533 311 533 241Q533 171 499.5 114Q466 57 409 23.5Q352 -10 281 -10ZM281 96Q322 96 353.5 114.5Q385 133 402.5 166Q420 199 420 241Q420 283 402 315Q384 347 353 365.5Q322 384 281 384Q241 384 209.5 365.5Q178 347 160.5 315Q143 283 143 241Q143 199 160.5 166Q178 133 209.5 114.5Q241 96 281 96Z"/><path id="g-500-176" d="M390 0V277Q390 325 359.5 356Q329 387 281.24 387Q248.74 387 223.87 373Q199 359 185 334Q171 309 171 277L128 301Q128 356 152 398.5Q176 441 218.4 465.5Q260.79 490 314.4 490Q368 490 410 462.5Q452 435 476 391.5Q500 348 500 301V0ZM61 0V480H171V0Z"/><path id="g-600-13" d="M171.5 0V111H355Q404.25 111 431.75 140.88Q459.25 170.75 459.25 212Q459.25 239.75 446.88 262.88Q434.5 286 411.12 299.5Q387.75 313 355 313H171.5V422.5H340Q381.75 422.5 407.25 443.75Q432.75 465 432.75 507.25Q432.75 549.5 407.25 570.75Q381.75 592 340 592H171.5V703H356.25Q425.75 703 473.12 677.38Q520.5 651.75 544.5 610.38Q568.5 569 568.5 520Q568.5 459.75 532.12 416.25Q495.75 372.75 425.5 351.5L431.75 395.75Q509.5 373.75 552.25 323.25Q595 272.75 595 201.75Q595 145.75 567.38 100.12Q539.75 54.5 487.25 27.25Q434.75 0 360 0ZM71.75 0V703H207V0Z"/><path id="g-600-156" d="M58 0V483H189.5V0ZM123.75 560.5Q92 560.5 71 582.12Q50 603.75 50 635.5Q50 667.25 71 688.88Q92 710.5 123.75 710.5Q156.5 710.5 177 688.88Q197.5 667.25 197.5 635.5Q197.5 603.75 177 582.12Q156.5 560.5 123.75 560.5Z"/><path id="g-600-205" d="M128.5 0V683.5H260V0ZM16 368V483H372.5V368Z"/><path id="g-600-274" d="M26 77.75 290.5 354.75Q318.75 384.5 336.38 408.38Q354 432.25 361.88 453.5Q369.75 474.75 369.75 497Q369.75 541 341.25 566Q312.75 591 268 591Q222 591 186.25 567.12Q150.5 543.25 119.75 491.25L27.25 570Q69 640.75 131.38 677.12Q193.75 713.5 275.25 713.5Q344.25 713.5 395.62 686.88Q447 660.25 475.12 612.12Q503.25 564 503.25 500Q503.25 456.75 492.62 421.88Q482 387 457.25 352.5Q432.5 318 390 274.5L196.75 78.25ZM26 0V77.75L141.75 118.25H517.5V0Z"/><path id="g-600-33" d="M396.5 -10.5Q321.75 -10.5 256.12 17.38Q190.5 45.25 141.38 94.88Q92.25 144.5 64.38 210.38Q36.5 276.25 36.5 352.25Q36.5 428.5 64.75 494Q93 559.5 143 609Q193 658.5 260.12 686Q327.25 713.5 404.75 713.5Q491.75 713.5 564.62 681Q637.5 648.5 685.75 589.75L593.5 497.5Q561 541.25 512 564.12Q463 587 404 587Q336.75 587 285.12 557.5Q233.5 528 204.62 475.25Q175.75 422.5 175.75 352.5Q175.75 282.5 204.5 229.25Q233.25 176 282.75 146Q332.25 116 395.75 116Q461.75 116 508.88 140.38Q556 164.75 581.12 212.38Q606.25 260 606.25 328.75L694.5 268L387.5 270.5V389.25H745.75V369.75Q745.75 244 700.75 159.25Q655.75 74.5 577.12 32Q498.5 -10.5 396.5 -10.5Z"/><path id="g-600-182" d="M284.5 -10.5Q211.75 -10.5 153.12 23Q94.5 56.5 60.25 114Q26 171.5 26 242.5Q26 313.5 60.12 370Q94.25 426.5 152.88 460Q211.5 493.5 284.25 493.5Q357.75 493.5 416.25 460.38Q474.75 427.25 509 370.38Q543.25 313.5 543.25 242.5Q543.25 171.5 509.12 114Q475 56.5 416.5 23Q358 -10.5 284.5 -10.5ZM284.25 112Q321.25 112 349.5 128.5Q377.75 145 393.38 174.62Q409 204.25 409 242.25Q409 280.25 392.88 309.12Q376.75 338 349 354.5Q321.25 371 284.25 371Q248.25 371 220 354.38Q191.75 337.75 176 308.88Q160.25 280 160.25 242Q160.25 204.25 176 174.62Q191.75 145 220 128.5Q248.25 112 284.25 112Z"/><path id="g-500-272" d="M329.08 -10Q250 -10 184.48 34.48Q118.97 78.96 79.98 160.16Q41 241.36 41 351Q41 461 79.44 541.41Q117.88 621.81 182.85 665.91Q247.82 710 326.87 710Q407 710 472.03 666Q537.05 622 575.53 541.26Q614 460.51 614 349.74Q614 240 575.54 158.9Q537.08 77.81 472.62 33.9Q408.17 -10 329.08 -10ZM327.11 98Q379 98 417 126Q455 154 476.5 210Q498 266 498 350.93Q498 435 476.5 491Q455 547 416.5 574.5Q378 602 326.61 602Q276 602 237.5 574.5Q199 547 178 491.5Q157 436 157 351.43Q157 266 178 210Q199 154 237.5 126Q276 98 327.11 98Z"/><path id="g-500-279" d="M126 0 381 630H495L246 0ZM26 597V700H495V630L446 597Z"/><path id="g-500-318" d="M9 -40 289 740H392L112 -40Z"/><path id="g-500-280" d="M274 -10Q202 -10 149 16Q96 42 66.5 88.5Q37 135 37 194Q37 241 55.5 280.5Q74 320 109.5 348Q145 376 194 388L191 356Q151 367 123.5 392Q96 417 82 451Q68 485 68 522Q68 578 94.5 620.5Q121 663 168 687Q215 711 274 711Q334 711 380.5 687Q427 663 453.5 620.5Q480 578 480 522Q480 485 466 451Q452 417 425 392Q398 367 357 356L354 388Q404 376 439 348Q474 320 492.5 280.5Q511 241 511 194Q511 135 482 88.5Q453 42 399.5 16Q346 -10 274 -10ZM274 94Q311 94 339.5 109Q368 124 384.5 150Q401 176 401 209Q401 243 384.5 268.5Q368 294 339.5 309Q311 324 274 324Q237 324 208.5 309Q180 294 163.5 268.5Q147 243 147 209Q147 176 163.5 150Q180 124 208.5 109Q237 94 274 94ZM274 414Q318 414 346 442Q374 470 374 514Q374 558 346 585.5Q318 613 274 613Q231 613 202.5 585.5Q174 558 174 514Q174 470 202.5 442Q231 414 274 414Z"/><path id="g-500-73" d="M155 264V364H330Q365.55 364 393.28 378.3Q421.01 392.61 437 419.07Q453 445.53 453 482Q453 518.47 437 544.93Q421.01 571.39 393.28 585.7Q365.55 600 330 600H155V700H336Q402 700 454.5 673Q507 646 537.5 597.2Q568 548.39 568 482.2Q568 416 537.5 367Q507 318 454.5 291Q402 264 336 264ZM76 0V700H191V0Z"/><path id="g-500-1" d="M24 0 312 700H392L678 0H554L330 567H372L146 0ZM166 135V235H537V135Z"/><path id="g-500-106" d="M295 280 22 700H155L368 365H306L519 700H650L375 280ZM279 0V352H394V0Z"/><path id="g-500-56" d="M76 0V700H156L447 221H395L686 700H766V0H651V498L677 491L461 136H381L165 491L191 498V0Z"/><path id="g-500-23" d="M76 0V700H191V0ZM155 0V105H547V0ZM155 307V408H513V307ZM155 595V700H542V595Z"/><path id="g-500-57" d="M76 0V700H156L191 568V0ZM561 0 142 547 156 700 575 153ZM561 0 526 123V700H641V0Z"/><path id="g-500-86" d="M252 0V680H367V0ZM24 595V700H595V595Z"/><path id="g-500-32" d="M76 0V700H191V0ZM155 300V405H511V300ZM155 595V700H528V595Z"/><path id="g-500-51" d="M76 0V700H191V0ZM155 0V105H521V0Z"/><path id="g-500-63" d="M398 -10Q323 -10 258 18Q193 46 144 95.5Q95 145 67.5 210.5Q40 276 40 351Q40 426 67.5 491Q95 556 143.5 605.5Q192 655 256.5 682.5Q321 710 396 710Q471 710 535.5 682.5Q600 655 649 605.5Q698 556 725.5 490.5Q753 425 753 350Q753 275 725.5 209.5Q698 144 649.5 95Q601 46 536.5 18Q472 -10 398 -10ZM396 100Q467 100 520.5 132Q574 164 604.5 220.5Q635 277 635 351Q635 406 617.5 451.5Q600 497 568 530.5Q536 564 492.5 582Q449 600 396 600Q326 600 272.5 568.5Q219 537 188.5 481Q158 425 158 351Q158 296 175.5 249.5Q193 203 224.5 170Q256 137 300 118.5Q344 100 396 100Z"/><path id="g-500-100" d="M256 0 26 700H139L312 161H282L451 700H531L700 161H670L843 700H956L726 0H646L476 538H506L336 0Z"/><path id="g-500-89" d="M346.32 -10Q266.63 -10 203.69 25.95Q140.75 61.9 104.38 124.52Q68 187.14 68 266V700H183V267Q183 216.04 204.47 178.4Q225.94 140.77 263.02 120.38Q300.1 100 346.16 100Q393 100 428.96 120.36Q464.92 140.72 485.96 178.3Q507 215.89 507 266V700H622V265Q622 186.1 586.1 124.02Q550.21 61.94 488.1 25.97Q426 -10 346.32 -10Z"/><path id="g-500-39" d="M76 0V700H191V0Z"/><path id="g-500-14" d="M394 -10Q318 -10 253.5 17.5Q189 45 141 94.5Q93 144 67 209.5Q41 275 41 350Q41 425 67 490.5Q93 556 141 605Q189 654 253.5 682Q318 710 394 710Q479 710 541 682Q603 654 651 606L573 528Q542 562 497.5 581Q453 600 394 600Q342 600 299 582Q256 564 224.5 530.5Q193 497 176 451Q159 405 159 350Q159 295 176 249Q193 203 224.5 169.5Q256 136 299 118Q342 100 394 100Q458 100 502.5 119.5Q547 139 578 173L656 95Q608 46 543 18Q478 -10 394 -10Z"/></defs><rect x="0" y="0" width="900" height="1440" rx="0" fill="#f5b994" stroke="none" stroke-width="1"/><g transform="translate(450 753) rotate(0) translate(-450.0 -535.0)"><svg width="900" height="1070" viewBox="0 0 900 1070" overflow="hidden"><polyline points="164,167 735,167 735,530 170,530 170,920 642,920" fill="none" stroke="#dc946e" stroke-width="3" stroke-linecap="round" stroke-linejoin="round"/><g transform="translate(354 235) rotate(-6) translate(-285.5 -104.0)"><g filter="url(#shadow)"><rect x="0" y="0" width="571" height="208" rx="30" fill="#faf6ec" stroke="none" stroke-width="1"/></g><svg width="571" height="208" viewBox="0 0 571 208" overflow="hidden"><defs><clipPath id="layer-2-clip"><rect width="571" height="208" rx="30"/></clipPath></defs><g clip-path="url(#layer-2-clip)"><rect x="0" y="0" width="571" height="208" rx="30" fill="#faf6ec" stroke="none" stroke-width="1"/><rect x="25" y="28" width="146" height="152" rx="25" fill="#e7ddf0" stroke="none" stroke-width="1"/><ellipse cx="99.0" cy="76.0" rx="19.0" ry="19.0" fill="none" stroke="#2b1630" stroke-width="4"/><path d="M62 144 C62 99 136 99 136 144" fill="none" stroke="#2b1630" stroke-width="4" stroke-linecap="round" stroke-linejoin="round"/><g fill="#2b1630" transform="translate(210.000 116.000) scale(0.043000 -0.043000)"><use href="#g-500-80" transform="translate(0 0)"/><use href="#g-500-140" transform="translate(550 0)"/><use href="#g-500-205" transform="translate(1072 0)"/><use href="#g-500-208" transform="translate(1650 0)"/><use href="#g-500-192" transform="translate(2167 0)"/></g></g></svg></g><g transform="translate(526 548) rotate(5) translate(-285.5 -104.0)"><g filter="url(#shadow)"><rect x="0" y="0" width="571" height="208" rx="30" fill="#2b1630" stroke="none" stroke-width="1"/></g><svg width="571" height="208" viewBox="0 0 571 208" overflow="hidden"><defs><clipPath id="layer-3-clip"><rect width="571" height="208" rx="30"/></clipPath></defs><g clip-path="url(#layer-3-clip)"><rect x="0" y="0" width="571" height="208" rx="30" fill="#2b1630" stroke="none" stroke-width="1"/><rect x="25" y="28" width="146" height="152" rx="25" fill="#c5b8e9" stroke="none" stroke-width="1"/><rect x="61" y="58" width="17" height="17" rx="3" fill="none" stroke="#2b1630" stroke-width="3"/><polyline points="95,66 135,66" fill="none" stroke="#2b1630" stroke-width="4" stroke-linecap="round" stroke-linejoin="round"/><rect x="61" y="95" width="17" height="17" rx="3" fill="none" stroke="#2b1630" stroke-width="3"/><polyline points="95,103 135,103" fill="none" stroke="#2b1630" stroke-width="4" stroke-linecap="round" stroke-linejoin="round"/><rect x="61" y="132" width="17" height="17" rx="3" fill="none" stroke="#2b1630" stroke-width="3"/><polyline points="95,140 135,140" fill="none" stroke="#2b1630" stroke-width="4" stroke-linecap="round" stroke-linejoin="round"/><g fill="#faf6ec" transform="translate(210.000 116.000) scale(0.043000 -0.043000)"><use href="#g-500-76" transform="translate(0 0)"/><use href="#g-500-140" transform="translate(600 0)"/><use href="#g-500-218" transform="translate(1126 0)"/><use href="#g-500-156" transform="translate(1636 0)"/><use href="#g-500-140" transform="translate(1870 0)"/><use href="#g-500-219" transform="translate(2398 0)"/></g></g></svg></g><g transform="translate(364 865) rotate(-5) translate(-285.5 -104.0)"><g filter="url(#shadow)"><rect x="0" y="0" width="571" height="208" rx="30" fill="#faf6ec" stroke="none" stroke-width="1"/></g><svg width="571" height="208" viewBox="0 0 571 208" overflow="hidden"><defs><clipPath id="layer-4-clip"><rect width="571" height="208" rx="30"/></clipPath></defs><g clip-path="url(#layer-4-clip)"><rect x="0" y="0" width="571" height="208" rx="30" fill="#faf6ec" stroke="none" stroke-width="1"/><rect x="25" y="28" width="146" height="152" rx="25" fill="#e7ddf0" stroke="none" stroke-width="1"/><polyline points="66,116.75 88.75,146 131,81" fill="none" stroke="#2b1630" stroke-width="8" stroke-linecap="round" stroke-linejoin="round"/><g fill="#2b1630" transform="translate(210.000 116.000) scale(0.043000 -0.043000)"><use href="#g-500-19" transform="translate(0 0)"/><use href="#g-500-182" transform="translate(740 0)"/><use href="#g-500-176" transform="translate(1303 0)"/><use href="#g-500-140" transform="translate(1854 0)"/></g></g></svg></g><path d="M796.00 1000.00 L763.07 1007.07 L756.00 1040.00 L748.93 1007.07 L716.00 1000.00 L748.93 992.93 L756.00 960.00 L763.07 992.93 Z" fill="#2b1630" stroke="none" stroke-width="1" stroke-linecap="round" stroke-linejoin="round"/></svg></g><g fill="#2b1630" transform="translate(58.000 89.000) scale(0.038000 -0.038000)"><use href="#g-600-13" transform="translate(0 0)"/><use href="#g-600-156" transform="translate(631 0)"/><use href="#g-600-205" transform="translate(879 0)"/><use href="#g-600-274" transform="translate(1268 0)"/><use href="#g-600-33" transform="translate(1821 0)"/><use href="#g-600-182" transform="translate(2599 0)"/></g><g fill="#2b1630" transform="translate(779.080 82.000) scale(0.020000 -0.020000)"><use href="#g-500-272" transform="translate(0 0)"/><use href="#g-500-279" transform="translate(620 0)"/><use href="#g-500-318" transform="translate(1342 0)"/><use href="#g-500-272" transform="translate(1943 0)"/><use href="#g-500-280" transform="translate(2598 0)"/></g><polyline points="58,124 842,124" fill="none" stroke="#2b1630" stroke-width="1" stroke-linecap="round" stroke-linejoin="round"/><g fill="#2b1630" transform="translate(58.000 1354.000) scale(0.020000 -0.020000)"><use href="#g-500-73" transform="translate(0 0)"/><use href="#g-500-1" transform="translate(540 0)"/><use href="#g-500-106" transform="translate(1140 0)"/><use href="#g-500-56" transform="translate(1788 0)"/><use href="#g-500-23" transform="translate(2630 0)"/><use href="#g-500-57" transform="translate(3220 0)"/><use href="#g-500-86" transform="translate(3937 0)"/><use href="#g-500-32" transform="translate(4740 0)"/><use href="#g-500-51" transform="translate(5306 0)"/><use href="#g-500-63" transform="translate(5802 0)"/><use href="#g-500-100" transform="translate(6566 0)"/><use href="#g-500-80" transform="translate(7516 0)"/></g><g fill="#2b1630" transform="translate(749.184 1391.000) scale(0.016000 -0.016000)"><use href="#g-500-89" transform="translate(0 0)"/><use href="#g-500-39" transform="translate(690 0)"/><use href="#g-500-14" transform="translate(1157 0)"/><use href="#g-500-63" transform="translate(1812 0)"/><use href="#g-500-57" transform="translate(2606 0)"/><use href="#g-500-14" transform="translate(3323 0)"/><use href="#g-500-23" transform="translate(4006 0)"/><use href="#g-500-73" transform="translate(4596 0)"/><use href="#g-500-86" transform="translate(5182 0)"/></g></svg>